<?xml version="1.0" standalone="no"?>
<!DOCTYPE svg PUBLIC "-//W3C//DTD SVG 20010904//EN"
 "http://www.w3.org/TR/2001/REC-SVG-20010904/DTD/svg10.dtd">
<svg version="1.0" xmlns="http://www.w3.org/2000/svg"
 width="225.000000pt" height="225.000000pt" viewBox="0 0 225.000000 225.000000"
 preserveAspectRatio="xMidYMid meet">
<metadata>
Created by potrace 1.11, written by Peter Selinger 2001-2013
</metadata>
<g transform="translate(0.000000,225.000000) scale(0.100000,-0.100000)"
fill="#000000" stroke="none">
<path d="M753 1940 c-23 -5 -52 -14 -65 -21 -35 -18 -98 -81 -114 -114 -8 -17
-9 -22 -2 -11 63 92 113 120 223 120 68 1 88 -3 131 -26 57 -30 97 -73 126
-133 l19 -40 -7 35 c-8 39 -40 95 -75 127 -55 50 -160 78 -236 63z"/>
<path d="M1334 1906 c-28 -13 -54 -28 -58 -34 -3 -5 13 0 37 12 62 30 186 29
247 -2 62 -33 99 -69 122 -122 40 -91 22 -199 -45 -278 l-41 -47 37 35 c57 52
81 112 81 195 0 75 -18 123 -69 183 -67 80 -208 106 -311 58z"/>
<path d="M1340 1743 c-38 -14 -60 -47 -60 -89 0 -35 5 -47 32 -69 26 -22 39
-26 66 -21 43 7 69 29 77 68 10 42 -11 84 -50 102 -35 17 -41 18 -65 9z m20
-54 c0 -5 -7 -9 -15 -9 -15 0 -20 12 -9 23 8 8 24 -1 24 -14z"/>
<path d="M542 1720 c0 -14 2 -19 5 -12 2 6 2 18 0 25 -3 6 -5 1 -5 -13z"/>
<path d="M775 1696 c-34 -51 12 -126 77 -126 44 0 90 50 86 92 -2 21 -9 33
-18 34 -8 0 -23 4 -32 8 -12 5 -30 1 -52 -12 -31 -18 -33 -19 -29 -2 8 29 -15
33 -32 6z"/>
<path d="M1073 1675 c0 -22 2 -30 4 -17 2 12 2 30 0 40 -3 9 -5 -1 -4 -23z"/>
<path d="M1821 1628 c-1 -27 4 -48 9 -48 12 0 12 34 0 70 -7 20 -8 16 -9 -22z"/>
<path d="M432 1620 c0 -14 2 -19 5 -12 2 6 2 18 0 25 -3 6 -5 1 -5 -13z"/>
<path d="M1061 1614 c0 -11 3 -14 6 -6 3 7 2 16 -1 19 -3 4 -6 -2 -5 -13z"/>
<path d="M1091 1466 c-68 -98 -213 -158 -341 -140 -64 9 -67 8 -52 -7 9 -9 24
-14 32 -11 8 3 12 2 8 -3 -11 -12 41 -36 66 -29 11 2 32 6 46 8 14 2 32 6 40
9 76 30 128 44 124 32 -7 -16 16 -24 41 -14 11 4 35 22 54 38 33 30 51 33 51
7 0 -18 74 -84 125 -112 44 -23 48 -23 77 -8 22 11 33 13 38 5 4 -8 13 -5 25
9 10 11 24 20 30 20 7 0 15 7 19 15 3 8 16 16 28 16 13 1 -16 5 -63 9 -131 12
-220 62 -287 163 -13 20 -26 37 -28 37 -2 0 -17 -20 -33 -44z"/>
<path d="M1564 1424 c-18 -14 -18 -15 4 -4 12 6 22 13 22 15 0 8 -5 6 -26 -11z"/>
<path d="M420 1213 c0 -6 18 -27 41 -47 24 -20 33 -33 22 -30 -12 3 -25 -2
-34 -13 -13 -16 -13 -17 4 -4 14 11 13 4 -8 -40 -14 -30 -25 -62 -25 -71 0 -9
-14 -31 -31 -48 -27 -27 -31 -36 -26 -68 7 -44 43 -79 92 -88 37 -7 42 -15 22
-36 -26 -28 -47 -68 -41 -82 3 -8 19 -19 35 -25 27 -9 42 -24 18 -19 -6 2 -15
-6 -19 -18 -6 -15 -2 -28 14 -47 13 -15 27 -23 31 -19 4 4 5 -5 2 -19 -7 -26
12 -56 26 -42 4 3 7 1 7 -5 0 -7 -6 -12 -12 -12 -8 -1 -6 -6 5 -14 20 -15 23
-31 5 -20 -7 3 2 -7 21 -24 19 -17 52 -38 73 -48 27 -12 38 -23 38 -39 0 -12
10 -37 23 -56 18 -27 30 -35 61 -37 24 -2 47 3 64 14 15 10 32 19 37 20 6 1
27 5 48 9 l37 7 0 -91 0 -92 153 3 152 3 3 89 c3 85 3 88 25 82 12 -3 50 -13
84 -22 78 -21 107 -14 138 35 16 26 36 43 60 51 19 6 35 16 35 21 0 6 6 7 13
3 8 -5 8 -3 -2 9 -11 14 -11 18 5 24 29 10 33 23 18 52 -17 32 -18 45 -2 35 8
-5 9 -2 5 10 -4 10 -7 23 -8 29 0 7 -4 3 -9 -8 -7 -16 -9 -17 -9 -3 -2 29 17
30 34 1 l15 -28 -1 25 c-3 51 1 60 22 60 16 0 19 -4 14 -18 -4 -9 -12 -29 -17
-44 -5 -16 -14 -28 -20 -28 -5 0 -6 -4 -3 -10 3 -5 9 -10 13 -10 9 0 40 56 51
95 9 29 10 29 16 8 4 -13 11 -23 16 -23 11 0 23 46 14 59 -8 14 28 14 42 0 8
-8 13 -8 17 0 4 6 3 11 -2 11 -5 0 -7 14 -4 30 5 33 -7 36 -58 20 l-25 -8 25
-2 c15 -1 5 -6 -24 -11 -28 -4 -53 -6 -58 -3 -4 3 -8 0 -8 -6 0 -6 -5 -8 -10
-5 -6 4 -8 11 -5 16 4 5 -5 9 -19 9 l-26 0 6 88 c3 48 10 91 14 95 4 5 22 1
39 -8 17 -9 36 -13 40 -10 5 3 11 0 13 -6 2 -5 22 -13 44 -16 102 -13 177 102
99 153 -15 10 -27 30 -31 52 -4 21 -13 50 -21 65 -8 16 -12 31 -9 35 3 3 6 0
6 -6 0 -7 3 -12 8 -12 4 0 7 15 7 34 1 31 -1 33 -22 23 -13 -6 -23 -13 -23
-17 0 -4 -29 -5 -64 -3 -58 5 -67 3 -89 -19 -13 -13 -26 -28 -28 -34 -2 -5
-34 -24 -70 -42 l-66 -32 -329 0 -329 1 -70 29 c-44 19 -81 43 -100 65 -22 26
-41 37 -70 42 -37 6 -120 53 -137 77 -5 8 -8 7 -8 -1z m185 -123 c3 -5 1 -10
-4 -10 -6 0 -11 5 -11 10 0 6 2 10 4 10 3 0 8 -4 11 -10z m145 -90 c0 -5 -2
-10 -4 -10 -3 0 -8 5 -11 10 -3 6 -1 10 4 10 6 0 11 -4 11 -10z m40 -10 c0 -5
-7 -10 -16 -10 -8 0 -12 5 -9 10 3 6 10 10 16 10 5 0 9 -4 9 -10z m710 -5
c-30 -17 -40 -18 -40 -6 0 10 22 18 50 19 8 1 4 -5 -10 -13z m-477 -2 c-7 -2
-19 -2 -25 0 -7 3 -2 5 12 5 14 0 19 -2 13 -5z m412 -9 c-37 -28 -91 -35 -196
-26 -56 5 -104 14 -108 20 -3 6 -27 12 -51 15 -25 2 50 4 165 5 188 1 208 0
190 -14z m-90 -75 c11 -4 14 -8 8 -8 -7 -1 -13 -9 -13 -18 0 -15 2 -16 10 -3
6 10 10 11 10 3 0 -7 -8 -21 -18 -31 -10 -10 -24 -46 -31 -79 -14 -72 -36 -98
-50 -62 -8 19 -10 20 -10 6 -1 -31 -36 -16 -36 15 0 16 -12 39 -28 56 -25 26
-39 31 -98 37 -38 4 -72 11 -75 17 -4 6 8 7 30 3 20 -4 36 -3 36 2 0 14 83 33
153 35 l62 1 -55 7 -55 7 48 1 c47 2 63 16 30 26 -10 2 0 2 22 -1 22 -3 49 -9
60 -14z m-723 -129 c0 -38 1 -76 2 -82 2 -19 -27 -21 -106 -8 -61 11 -69 14
-55 25 9 7 17 16 17 20 0 4 16 29 36 55 25 33 42 46 54 43 10 -3 21 0 24 6 17
26 26 6 28 -59z m759 40 c5 0 8 -20 7 -45 -2 -25 -7 -45 -12 -45 -20 0 -46 34
-46 60 0 31 9 43 28 35 7 -3 18 -5 23 -5z m-31 -89 c0 -6 -4 -13 -10 -16 -5
-3 -10 1 -10 9 0 9 5 16 10 16 6 0 10 -4 10 -9z m317 -107 c-3 -3 -12 -4 -19
-1 -8 3 -5 6 6 6 11 1 17 -2 13 -5z"/>
<path d="M1300 881 c0 -6 5 -13 10 -16 6 -3 10 1 10 9 0 9 -4 16 -10 16 -5 0
-10 -4 -10 -9z"/>
<path d="M1028 1203 c7 -3 16 -2 19 1 4 3 -2 6 -13 5 -11 0 -14 -3 -6 -6z"/>
<path d="M1075 1140 c-11 -5 -63 -6 -115 -3 l-95 6 16 -24 c9 -13 38 -35 65
-49 44 -23 60 -25 169 -25 131 0 172 13 224 69 l24 26 -44 1 c-24 1 -48 0 -54
-1 -23 -4 -132 -3 -150 3 -11 3 -29 2 -40 -3z"/>
<path d="M431 624 c0 -11 3 -14 6 -6 3 7 2 16 -1 19 -3 4 -6 -2 -5 -13z"/>
</g>
</svg>
